<?xml version="1.0" encoding="UTF-8" standalone="no"?>
<svg width="26px" height="36px" viewBox="0 0 26 36" version="1.1" xmlns="http://www.w3.org/2000/svg" xmlns:xlink="http://www.w3.org/1999/xlink">
    <!-- Generator: Sketch 43 (38999) - http://www.bohemiancoding.com/sketch -->
    <title>mdpi/herely logo</title>
    <desc>Created with Sketch.</desc>
    <defs></defs>
    <g id="企业" stroke="none" stroke-width="1" fill="none" fill-rule="evenodd">
        <g id="A1-首页" transform="translate(-626.000000, -244.000000)" fill="#FFFFFF">
            <g id="herely-logo" transform="translate(626.000000, 244.000000)">
                <g id="Icon" transform="translate(0.000000, 0.000000)">
                    <path d="M1.46777497,35.924838 C0.691730273,35.924838 0.0629058202,35.3034025 0.0629058202,34.5364766 L0.0629058202,8.00196923 C0.0629058202,7.59143832 0.247787057,7.20008056 0.566193631,6.93729566 L8.02877639,0.775948531 C8.44875352,0.428576224 9.03078704,0.354139301 9.52494492,0.583089231 C10.0191028,0.810911329 10.3352269,1.30151832 10.3352269,1.8406221 L10.3352269,15.1084397 C10.3352269,15.8753656 9.70526118,16.4968011 8.93035773,16.4968011 C8.15431303,16.4968011 7.52434734,15.8753656 7.52434734,15.1084397 L7.52434734,4.81133203 L2.87264412,8.65160056 L2.87264412,34.5364766 C2.87264412,35.3034025 2.24381967,35.924838 1.46777497,35.924838" id="Fill-1"></path>
                    <path d="M1.46891621,22.6581483 C1.06605772,22.6581483 0.667764187,22.4889734 0.38930109,22.1596464 C-0.10828051,21.570918 -0.028393556,20.6957203 0.567334873,20.2039855 L8.02877639,14.0426383 C8.28213216,13.8339894 8.60053873,13.7200783 8.93035773,13.7200783 L24.3690822,13.7200783 C25.1451269,13.7200783 25.7750926,14.3415138 25.7750926,15.1084397 C25.7750926,15.8753656 25.1451269,16.4968011 24.3690822,16.4968011 L9.43935175,16.4968011 L2.36935631,22.3344604 C2.10572936,22.552132 1.78618154,22.6581483 1.46891621,22.6581483" id="Fill-2"></path>
                    <path d="M16.9338893,35.924838 C16.7318894,35.924838 16.5287483,35.8819804 16.3381609,35.7940095 C15.844003,35.5661874 15.5290201,35.0755804 15.5290201,34.5364766 L15.5290201,21.2697869 C15.5290201,20.502861 16.1578446,19.8802976 16.9338893,19.8802976 C17.709934,19.8802976 18.3387584,20.502861 18.3387584,21.2697869 L18.3387584,31.5668945 L22.9916029,27.7254982 L22.9916029,1.8406221 C22.9916029,1.07369622 23.6215686,0.452260699 24.396472,0.452260699 C25.1725167,0.452260699 25.8024824,1.07369622 25.8024824,1.8406221 L25.8024824,28.3751295 C25.8024824,28.7867883 25.6176012,29.1770182 25.2980534,29.4409309 L17.8354706,35.602278 C17.5775499,35.8143105 17.2568608,35.924838 16.9338893,35.924838" id="Fill-3"></path>
                    <path d="M16.9064995,22.6581483 L1.46777497,22.6581483 C0.692871516,22.6581483 0.0629058202,22.0367127 0.0629058202,21.2697869 C0.0629058202,20.502861 0.692871516,19.8802976 1.46777497,19.8802976 L16.3975055,19.8802976 L23.4686421,14.0426383 C24.0666531,13.5497757 24.9499745,13.6287239 25.4486974,14.2185801 C25.946279,14.8073085 25.866392,15.6825063 25.2706636,16.1742411 L17.8080808,22.3355883 C17.554725,22.5442372 17.2363185,22.6581483 16.9064995,22.6581483" id="Fill-4"></path>
                </g>
            </g>
        </g>
    </g>
</svg>