<?xml version="1.0" encoding="UTF-8"?>
<svg width="18px" height="18px" viewBox="0 0 18 18" version="1.1" xmlns="http://www.w3.org/2000/svg" xmlns:xlink="http://www.w3.org/1999/xlink">
    <!-- Generator: Sketch 43 (38999) - http://www.bohemiancoding.com/sketch -->
    <title>mdpi/search</title>
    <desc>Created with Sketch.</desc>
    <defs></defs>
    <g id="Page-1" stroke="none" stroke-width="1" fill="none" fill-rule="evenodd">
        <g id="H3-订单管理-短" transform="translate(-852.000000, -165.000000)" fill="#FFFFFF">
            <g id="搜索-copy" transform="translate(841.000000, 154.000000)">
                <g id="icon">
                    <path d="M28.7737194,27.6815 L25.9412721,24.851 C25.9097505,24.8195 25.8737257,24.806 25.842204,24.7835 C28.6026018,21.4895 28.4404903,16.5575 25.3423604,13.4615 C23.7527675,11.873 21.6453187,11 19.3982738,11 C17.1557321,11 15.0437801,11.873 13.4586903,13.4615 C10.1804366,16.7375 10.1804366,22.0655 13.4586903,25.3415 C15.0437801,26.9255 17.1557321,27.803 19.3982738,27.803 C21.3931453,27.803 23.2754394,27.11 24.7839765,25.8455 C24.806492,25.877 24.8200013,25.913 24.8515229,25.94 L27.6839702,28.775 C27.8325724,28.9235 28.0307086,29 28.2288448,29 C28.426981,29 28.6251173,28.9235 28.7737194,28.775 C29.0754269,28.4735 29.0754269,27.983 28.7737194,27.6815 L28.7737194,27.6815 Z M19.3982738,26.2595 C17.5655138,26.2595 15.8453312,25.544 14.5484396,24.248 C11.8736006,21.575 11.8736006,17.228 14.5484396,14.5505 C15.8453312,13.2545 17.5655138,12.5435 19.3982738,12.5435 C21.2310338,12.5435 22.9557196,13.2545 24.2481081,14.5505 C26.922947,17.228 26.922947,21.575 24.2481081,24.248 C22.9557196,25.544 21.2310338,26.2595 19.3982738,26.2595 L19.3982738,26.2595 Z" id="search"></path>
                </g>
            </g>
        </g>
    </g>
</svg>