<?xml version="1.0" encoding="UTF-8"?>
<svg width="14px" height="18px" viewBox="0 0 14 18" version="1.1" xmlns="http://www.w3.org/2000/svg" xmlns:xlink="http://www.w3.org/1999/xlink">
    <!-- Generator: Sketch 44.1 (41455) - http://www.bohemiancoding.com/sketch -->
    <title>xxxhdpi/Icon</title>
    <desc>Created with Sketch.</desc>
    <defs></defs>
    <g id="企业" stroke="none" stroke-width="1" fill="none" fill-rule="evenodd">
        <g id="H2-订单管理-短" transform="translate(-40.000000, -16.000000)" fill="#80D4F6">
            <g id="顶部栏">
                <g id="Icon" transform="translate(40.000000, 16.000000)">
                    <path d="M0.765870459,18 C0.342806355,18 0,17.6846662 0,17.2955066 L0,3.83115545 C0,3.62284059 0.100788801,3.42425472 0.274369514,3.29091031 L4.3426286,0.164470464 C4.57158094,-0.0117959601 4.88887901,-0.0495673366 5.1582713,0.0666082609 C5.42766359,0.182211565 5.6,0.431159274 5.6,0.704715607 L5.6,7.43717733 C5.6,7.82633696 5.25657149,8.14167073 4.83412954,8.14167073 C4.41106544,8.14167073 4.06763693,7.82633696 4.06763693,7.43717733 L4.06763693,2.21213691 L1.53174092,4.16079656 L1.53174092,17.2955066 C1.53174092,17.6846662 1.18893456,18 0.765870459,18" id="Fill-1"></path>
                    <path d="M0.689126774,11.0769231 C0.491712076,11.0769231 0.296534371,10.9983014 0.160077752,10.8452512 C-0.0837545666,10.5716477 -0.0446071759,10.1649114 0.247320509,9.93638437 L3.90368679,7.07298229 C4.02783995,6.97601553 4.18387026,6.92307692 4.34549306,6.92307692 L11.9110059,6.92307692 C12.2912949,6.92307692 12.6,7.21188061 12.6,7.56829896 C12.6,7.9247173 12.2912949,8.21352099 11.9110059,8.21352099 L4.59491786,8.21352099 L1.13037379,10.9264936 C1.0011874,11.0276535 0.84459784,11.0769231 0.689126774,11.0769231" id="Fill-2"></path>
                    <path d="M9.16578538,18 C9.05567652,18 8.94494557,17.9782526 8.84105754,17.9336131 C8.57169518,17.8180084 8.4,17.5690576 8.4,17.2954979 L8.4,10.5635254 C8.4,10.1743609 8.74276827,9.85845097 9.16578538,9.85845097 C9.58880249,9.85845097 9.93157076,10.1743609 9.93157076,10.5635254 L9.93157076,15.7886303 L12.4678072,13.8393743 L12.4678072,0.704502098 C12.4678072,0.315337657 12.8111975,5.55111512e-17 13.2335925,5.55111512e-17 C13.6566096,5.55111512e-17 14,0.315337657 14,0.704502098 L14,14.1690195 C14,14.3779092 13.8992224,14.5759252 13.7250389,14.7098436 L9.65723173,17.836322 C9.51664075,17.9439145 9.34183515,18 9.16578538,18" id="Fill-3"></path>
                    <path d="M8.25394769,11.0769231 L0.688434827,11.0769231 C0.308705138,11.0769231 0,10.788155 0,10.4317806 C0,10.0754062 0.308705138,9.78611399 0.688434827,9.78611399 L8.00452289,9.78611399 L11.4696262,7.0734758 C11.7626724,6.84445283 12.1955307,6.88113843 12.4399222,7.15523228 C12.6837546,7.42880206 12.6446072,7.83548815 12.3526795,8.06398704 L8.69575396,10.9270362 C8.5716008,11.023991 8.41557049,11.0769231 8.25394769,11.0769231" id="Fill-4"></path>
                </g>
            </g>
        </g>
    </g>
</svg>