<?xml version="1.0" encoding="UTF-8"?>
<svg width="70px" height="70px" viewBox="0 0 70 70" version="1.1" xmlns="http://www.w3.org/2000/svg" xmlns:xlink="http://www.w3.org/1999/xlink">
    <!-- Generator: Sketch 43 (38999) - http://www.bohemiancoding.com/sketch -->
    <title>mdpi/Envelope</title>
    <desc>Created with Sketch.</desc>
    <defs></defs>
    <g id="企业" stroke="none" stroke-width="1" fill="none" fill-rule="evenodd">
        <g id="B3-企业-注册成功" transform="translate(-605.000000, -287.000000)" fill="#80D4F6">
            <g id="Envelope" transform="translate(605.000000, 287.000000)">
                <g id="icon提交">
                    <path d="M68.5106355,70 L1.48936164,70 C0.666850852,70 0,69.3331601 0,68.5106628 L0,26.5927744 L0.000921064713,26.5927744 L0.000921064713,26.5927744 C0.000921064713,26.1230391 0.221976596,25.6809353 0.596849934,25.4000151 L34.1079474,0.297729284 C34.6366385,-0.0992430946 35.3642797,-0.0992430946 35.8929708,0.297729284 L69.4049893,25.4009362 C69.7798627,25.6818563 70.0009182,26.1239601 69.9999971,26.5927744 L69.9999971,68.5106628 C69.9999971,69.3331601 69.3340673,70 68.5106355,70 L68.5106355,70 Z M35.0004591,3.35008766 L3.97439424,26.5927744 L14.2958454,34.3240647 L14.2958454,20.1518745 L55.7069149,20.1518745 L55.7069149,34.3240647 L66.026524,26.5927744 L35.0004591,3.35008766 L35.0004591,3.35008766 Z M17.2745687,23.1305489 L17.2745687,36.5548469 L35.0004591,49.83454 L52.7272706,36.5557679 L52.7272706,23.1305489 L17.2745687,23.1305489 L17.2745687,23.1305489 Z M67.0212739,29.5696067 L35.8929708,52.8868984 C35.6286252,53.0858451 34.8751943,53.4247914 34.1079474,52.8868984 L2.97872328,29.5677646 L2.97872328,67.0213256 L67.0212739,67.0213256 L67.0212739,29.5696067 L67.0212739,29.5696067 Z M26.4815316,35.0443255 L43.7984692,35.0443255 L43.7984692,38.0229999 L26.4815316,38.0229999 L26.4815316,35.0443255 L26.4815316,35.0443255 Z M26.4815316,28.3519791 L43.7984692,28.3519791 L43.7984692,31.3306535 L26.4815316,31.3306535 L26.4815316,28.3519791 L26.4815316,28.3519791 Z" id="Shape"></path>
                </g>
            </g>
        </g>
    </g>
</svg>